<svg width="512" height="512" viewBox="0 0 512 512" fill="none" xmlns="http://www.w3.org/2000/svg">
<rect width="512" height="512" fill="white"/>
<path d="M512 162.008C512 90.7449 454.241 33 382.994 33C333.964 33 291.324 60.3629 269.515 100.646C250.915 73.6363 219.805 55.9293 184.535 55.9293C127.538 55.9293 81.3359 102.142 81.3359 159.152C81.3359 183.659 89.9019 206.099 104.151 223.806C44.815 235.393 0 287.643 0 350.393C0 421.656 57.7591 479.428 129.006 479.428C183.448 479.428 229.921 445.646 248.848 397.911C262.418 439.091 301.114 468.82 346.826 468.82C403.824 468.82 450.026 422.608 450.026 365.598C450.026 334.182 435.967 306.112 413.831 287.181C470.149 273.336 512 222.636 512 162.008Z" fill="#1C46F0"/>
<path d="M269.488 350.366H125.227L197.371 225.41L269.488 100.455L341.633 225.41L413.75 350.366H269.488Z" fill="white"/>
<path d="M393.574 225.41H337.446L365.51 176.804L393.574 128.171L421.637 176.804L449.701 225.41H393.574Z" fill="white"/>
<path d="M221.355 317.944C234.511 317.944 245.176 307.276 245.176 294.117C245.176 280.958 234.511 270.29 221.355 270.29C208.198 270.29 197.533 280.958 197.533 294.117C197.533 307.276 208.198 317.944 221.355 317.944Z" fill="#242F67"/>
</svg>
