<svg xmlns="http://www.w3.org/2000/svg" fill="none" viewBox="0 0 1366 769">
  <g clip-path="url(#a)">
    <path fill="#084FF9" d="M1366 0H0v768.3h1366V0Z"/>
    <path fill="#fff" d="M1042.67 523.61c10.72 0 19.41-8.69 19.41-19.41s-8.69-19.41-19.41-19.41-19.41 8.69-19.41 19.41 8.69 19.41 19.41 19.41ZM675.651 582.43c11.277 0 20.419-9.142 20.419-20.42 0-11.278-9.142-20.42-20.419-20.42-11.278 0-20.421 9.142-20.421 20.42 0 11.278 9.143 20.42 20.421 20.42ZM720.93 685.28c9.068 0 16.42-7.352 16.42-16.42 0-9.069-7.352-16.42-16.42-16.42-9.069 0-16.42 7.351-16.42 16.42 0 9.068 7.351 16.42 16.42 16.42ZM1126.07 326.51c6.75 0 12.22-5.471 12.22-12.22 0-6.749-5.47-12.22-12.22-12.22-6.75 0-12.22 5.471-12.22 12.22 0 6.749 5.47 12.22 12.22 12.22ZM1067.54 242.36a8.8 8.8 0 1 0 0-17.6 8.8 8.8 0 0 0 0 17.6ZM934.6 372.33h35.49l-17.74-30.73-17.75-30.73-17.74 30.73-16.42 28.45-44.28-76.7-45.61 78.98-45.6 78.99h182.41l-45.6-78.99h32.84Z"/>
    <path fill="#000" d="M825.72 430.83c8.318 0 15.06-6.743 15.06-15.06s-6.742-15.06-15.06-15.06c-8.317 0-15.06 6.743-15.06 15.06s6.743 15.06 15.06 15.06Z"/>
    <mask id="b" width="388" height="238" x="55" y="531" maskUnits="userSpaceOnUse" style="mask-type:luminance">
      <path fill="#fff" d="M442.55 531.79H55.98V768.3h386.57V531.79Z"/>
    </mask>
    <g mask="url(#b)">
      <path stroke="#fff" stroke-linecap="round" stroke-miterlimit="10" stroke-width="6" d="M162.82 623.28a21.512 21.512 0 0 1-.96 20.08l-7.28 12.33a21.522 21.522 0 0 0-.82 20.37l8.5 17.44a21.52 21.52 0 0 1-.52 19.85l-6.79 12.27a21.505 21.505 0 0 0-.72 19.43l8.16 17.72c2.71 5.89 2.62 12.7-.25 18.52 0 0-12.96 17-12.96 26.28M140.59 643.35l-7.28 12.33a21.522 21.522 0 0 0-.82 20.37l8.5 17.44a21.52 21.52 0 0 1-.52 19.85l-6.79 12.27a21.505 21.505 0 0 0-.72 19.43l8.16 17.72c2.71 5.89 2.62 12.7-.25 18.52 0 0-12.96 17-12.96 26.28M105.69 591.4c0 12.44 13.16 31.87 13.16 31.87a21.512 21.512 0 0 1-.96 20.08l-7.28 12.33a21.522 21.522 0 0 0-.82 20.37l8.5 17.44a21.52 21.52 0 0 1-.52 19.85l-6.79 12.27a21.505 21.505 0 0 0-.72 19.43l8.16 17.72c2.71 5.89 2.62 12.7-.25 18.52 0 0-12.96 17-12.96 26.28"/>
      <path stroke="#fff" stroke-linecap="round" stroke-linejoin="round" stroke-miterlimit="10" stroke-width="6" d="M236.32 634.73v129.5M225.71 647.27l10.58 6.94 10.37-6.7M193.48 662.47l10.58 6.94 10.37-6.7"/>
      <path stroke="#fff" stroke-linecap="round" stroke-linejoin="round" stroke-miterlimit="10" stroke-width="6" d="M236.2 682.57h-23.49c-7.71 0-8.63-2.58-8.63-7.53v-22.2M274.29 678.39l-10.59 6.94-10.36-6.7"/>
      <path stroke="#fff" stroke-linecap="round" stroke-linejoin="round" stroke-miterlimit="10" stroke-width="6" d="M239.34 698.49h15.77c7.71 0 8.63-2.58 8.63-7.53v-22.39"/>
      <path fill="#fff" d="M331.36 735.96c13.79 2.48 27.03-5.73 31.2-18.71.61-1.89-.57-3.88-2.52-4.24l-47.58-8.54c-1.95-.35-3.75 1.11-3.84 3.09-.6 13.62 8.95 25.92 22.74 28.4Z"/>
      <path fill="#fff" d="M327.9 713.05a5.81 5.81 0 1 0 0-11.62 5.81 5.81 0 0 0 0 11.62ZM345.2 716.16a5.81 5.81 0 1 0 0-11.62 5.81 5.81 0 0 0 0 11.62Z"/>
      <path stroke="#fff" stroke-linecap="round" stroke-linejoin="round" stroke-miterlimit="10" stroke-width="4.252" d="m310.97 708.59-4.92-6.02 6.23-8.67"/>
      <path fill="#fff" d="M316.41 683.64c-3.77-.68-7.37 1.83-8.05 5.6-.68 3.77 1.83 7.37 5.6 8.05 3.77.68 7.37-1.83 8.05-5.6l-6.82-1.22 1.22-6.83Z"/>
      <path stroke="#fff" stroke-linecap="round" stroke-linejoin="round" stroke-miterlimit="10" stroke-width="4.252" d="m359.51 717.61 7.06-4.17-2.83-10.31"/>
      <path fill="#fff" d="M363.44 692.08c3.77.68 6.28 4.28 5.6 8.05-.68 3.77-4.28 6.28-8.05 5.6-3.77-.68-6.28-4.28-5.6-8.05l6.82 1.22 1.23-6.82Z"/>
      <path stroke="#fff" stroke-linecap="round" stroke-linejoin="round" stroke-miterlimit="10" stroke-width="4.252" d="m312.85 722.11-8.18 6.13 1.17 13.34M320.3 728.1l-5.45 3.56 1.5 10.58M353.32 729.44l5.49 8.51-5.38 11.34M344.2 732.39l3.87 5.23-4.88 9.02"/>
      <path fill="#000" d="M327.9 710.09a2.85 2.85 0 1 0 0-5.7 2.85 2.85 0 0 0 0 5.7ZM345.2 713.2a2.85 2.85 0 1 0 0-5.7 2.85 2.85 0 0 0 0 5.7Z"/>
      <mask id="c" width="400" height="108" x="68" y="717" maskUnits="userSpaceOnUse" style="mask-type:luminance">
        <path fill="#fff" d="M467.36 717.61H68.32v107.11h399.04V717.61Z"/>
      </mask>
      <g mask="url(#c)">
        <path fill="#fff" d="M220.29 874.66c37.616 0 68.11-30.494 68.11-68.11s-30.494-68.11-68.11-68.11-68.11 30.494-68.11 68.11 30.494 68.11 68.11 68.11Z"/>
      </g>
      <mask id="d" width="400" height="108" x="68" y="717" maskUnits="userSpaceOnUse" style="mask-type:luminance">
        <path fill="#fff" d="M467.36 717.61H68.32v107.11h399.04V717.61Z"/>
      </mask>
      <g mask="url(#d)">
        <path fill="#fff" d="M307.47 1047.16c84.201 0 152.46-68.258 152.46-152.46 0-84.201-68.259-152.46-152.46-152.46-84.202 0-152.46 68.259-152.46 152.46 0 84.202 68.258 152.46 152.46 152.46Z"/>
      </g>
    </g>
    <mask id="e" width="429" height="265" x="905" y="504" maskUnits="userSpaceOnUse" style="mask-type:luminance">
      <path fill="#fff" d="M1333.59 504.2H905.07v264.1h428.52V504.2Z"/>
    </mask>
    <g mask="url(#e)">
      <path fill="#fff" stroke="#084FF9" stroke-miterlimit="10" stroke-width="3" d="M1266.51 783.16v-44.21s10.63-5.83 10.63-13.04c0-7.21-6.18-9.95-6.18-17.15 0-7.2 6.86-7.89 6.86-14.75s-6.18-8.23-6.18-15.09c0-6.86 6.86-9.26 6.86-14.41s-7.55-10.29-7.55-14.75c0-4.46 6.52-9.61 6.52-15.44s-5.83-8.92-5.83-15.09 6.18-9.26 6.18-15.44-6.86-9.26-6.86-14.75 7.2-8.23 7.2-15.09c0-6.86-9.61-10.29-9.61-15.09 0-4.8 5.15-11.32 3.43-15.09-1.72-3.77-12.31-22.72-12.31-22.72l-.19-.37c-.97-1.86-3.62-1.9-4.62-.06-3.84 7.01-11.14 20.39-12.39 23.15-1.72 3.77 3.43 10.29 3.43 15.09 0 4.8-9.61 8.23-9.61 15.09 0 6.86 7.2 9.61 7.2 15.09s-6.86 8.58-6.86 14.75 6.18 9.26 6.18 15.44-5.83 9.26-5.83 15.09 6.52 10.98 6.52 15.44c0 4.46-7.55 9.61-7.55 14.75 0 5.14 6.86 7.55 6.86 14.41s-6.18 8.23-6.18 15.09c0 6.86 6.86 7.55 6.86 14.75s-6.18 9.95-6.18 17.15c0 7.2 10.63 13.04 10.63 13.04v44.21h18.57Z"/>
      <path stroke="#fff" stroke-linecap="round" stroke-linejoin="round" stroke-miterlimit="10" stroke-width="6" d="M1084.9 645.04v125.09M1057.03 661.37l27.88 24.31 28.05-24.31M1057.03 697.42l27.88 24.31 28.05-24.31"/>
      <path stroke="#fff" stroke-linecap="round" stroke-miterlimit="10" stroke-width="6" d="M1139.66 585.84a21.512 21.512 0 0 0 .96 20.08l7.28 12.33c3.68 6.22 3.98 13.88.82 20.37l-8.5 17.44a21.52 21.52 0 0 0 .52 19.85l6.79 12.27c3.32 5.99 3.59 13.21.72 19.43l-8.16 17.72c-2.71 5.89-2.62 12.7.25 18.52 0 0 12.96 17 12.96 26.28M1162.35 605.92l7.28 12.33c3.68 6.22 3.98 13.88.82 20.37l-8.5 17.44a21.52 21.52 0 0 0 .52 19.85l6.79 12.27c3.32 5.99 3.59 13.21.72 19.43l-8.16 17.72c-2.71 5.89-2.62 12.7.25 18.52 0 0 12.96 17 12.96 26.28M1196.97 553.97c0 12.44-13.16 31.87-13.16 31.87a21.512 21.512 0 0 0 .96 20.08l7.28 12.33c3.68 6.22 3.98 13.88.82 20.37l-8.5 17.44a21.52 21.52 0 0 0 .52 19.85l6.79 12.27c3.32 5.99 3.59 13.21.72 19.43l-8.16 17.72c-2.71 5.89-2.62 12.7.25 18.52 0 0 12.96 17 12.96 26.28"/>
      <mask id="f" width="400" height="100" x="966" y="725" maskUnits="userSpaceOnUse" style="mask-type:luminance">
        <path fill="#fff" d="M1365.7 725.33H966.66v99.39h399.04v-99.39Z"/>
      </mask>
      <g mask="url(#f)">
        <path fill="#fff" d="M1073.72 1053.9c85.51 0 154.82-69.315 154.82-154.82s-69.31-154.82-154.82-154.82c-85.504 0-154.82 69.315-154.82 154.82s69.316 154.82 154.82 154.82Z"/>
      </g>
      <mask id="g" width="400" height="100" x="966" y="725" maskUnits="userSpaceOnUse" style="mask-type:luminance">
        <path fill="#fff" d="M1365.7 725.33H966.66v99.39h399.04v-99.39Z"/>
      </mask>
      <g mask="url(#g)">
        <path fill="#fff" d="M1216.15 878.38c34.79 0 62.99-28.201 62.99-62.99 0-34.788-28.2-62.99-62.99-62.99-34.79 0-62.99 28.202-62.99 62.99 0 34.789 28.2 62.99 62.99 62.99Z"/>
      </g>
    </g>
  </g>
  <defs>
    <clipPath id="a">
      <path fill="#fff" d="M0 0h1366v768.3H0z"/>
    </clipPath>
  </defs>
</svg>
