<svg width="1366" height="768" viewBox="0 0 1366 768" fill="none" xmlns="http://www.w3.org/2000/svg">
<g clip-path="url(#clip0_639_176)">
<path d="M1366 0H0V768.3H1366V0Z" fill="#084FF9"/>
<path d="M1057.33 554.84C1066.27 554.84 1073.51 547.596 1073.51 538.66C1073.51 529.724 1066.27 522.48 1057.33 522.48C1048.39 522.48 1041.15 529.724 1041.15 538.66C1041.15 547.596 1048.39 554.84 1057.33 554.84Z" fill="white"/>
<path d="M559.459 667.69C570.737 667.69 579.879 658.548 579.879 647.27C579.879 635.992 570.737 626.85 559.459 626.85C548.181 626.85 539.039 635.992 539.039 647.27C539.039 658.548 548.181 667.69 559.459 667.69Z" fill="white"/>
<path d="M484.09 530.86C490.502 530.86 495.7 525.662 495.7 519.25C495.7 512.838 490.502 507.64 484.09 507.64C477.678 507.64 472.48 512.838 472.48 519.25C472.48 525.662 477.678 530.86 484.09 530.86Z" fill="white"/>
<path d="M1126.37 326.51C1133.12 326.51 1138.59 321.039 1138.59 314.29C1138.59 307.541 1133.12 302.07 1126.37 302.07C1119.62 302.07 1114.15 307.541 1114.15 314.29C1114.15 321.039 1119.62 326.51 1126.37 326.51Z" fill="white"/>
<path d="M1046.72 207.98C1051.58 207.98 1055.52 204.04 1055.52 199.18C1055.52 194.32 1051.58 190.38 1046.72 190.38C1041.86 190.38 1037.92 194.32 1037.92 199.18C1037.92 204.04 1041.86 207.98 1046.72 207.98Z" fill="white"/>
<path d="M813.101 352.55L765.461 435.18L860.841 435.12L956.231 435.06L908.481 352.49L860.741 269.92L813.101 352.55Z" fill="white"/>
<path d="M924.891 321.61L906.361 353.75L943.471 353.73L980.581 353.71L962.001 321.58L943.431 289.46L924.891 321.61Z" fill="white"/>
<path d="M829.422 414.44C838.12 414.44 845.172 407.388 845.172 398.69C845.172 389.991 838.12 382.94 829.422 382.94C820.723 382.94 813.672 389.991 813.672 398.69C813.672 407.388 820.723 414.44 829.422 414.44Z" fill="black"/>
<path d="M742.601 474.23L725.051 504.57L760.101 504.6L795.141 504.63L777.651 474.26L760.151 443.9L742.601 474.23Z" fill="white"/>
<path d="M783.271 462.93L776.451 474.73L790.081 474.74L803.721 474.75L796.911 462.94L790.101 451.12L783.271 462.93Z" fill="white"/>
<path d="M748.571 496.99C751.769 496.99 754.361 494.398 754.361 491.2C754.361 488.002 751.769 485.41 748.571 485.41C745.373 485.41 742.781 488.002 742.781 491.2C742.781 494.398 745.373 496.99 748.571 496.99Z" fill="black"/>
<path d="M831.191 474.24L819.801 493.93L842.551 493.95L865.301 493.97L853.941 474.26L842.581 454.55L831.191 474.24Z" fill="white"/>
<path d="M857.27 466.9L852.83 474.56L861.68 474.57L870.53 474.58L866.12 466.91L861.7 459.24L857.27 466.9Z" fill="white"/>
<path d="M835.061 489.01C837.137 489.01 838.821 487.327 838.821 485.25C838.821 483.173 837.137 481.49 835.061 481.49C832.984 481.49 831.301 483.173 831.301 485.25C831.301 487.327 832.984 489.01 835.061 489.01Z" fill="black"/>
<path d="M993.939 415.45L982.539 435.14L1005.29 435.16L1028.04 435.18L1016.68 415.47L1005.33 395.76L993.939 415.45Z" fill="white"/>
<path d="M1020.01 408.11L1015.58 415.77L1024.43 415.78L1033.28 415.79L1028.86 408.12L1024.44 400.45L1020.01 408.11Z" fill="white"/>
<path d="M997.809 430.22C999.885 430.22 1001.57 428.537 1001.57 426.46C1001.57 424.383 999.885 422.7 997.809 422.7C995.732 422.7 994.049 424.383 994.049 426.46C994.049 428.537 995.732 430.22 997.809 430.22Z" fill="black"/>
<mask id="mask0_639_176" style="mask-type:luminance" maskUnits="userSpaceOnUse" x="27" y="504" width="1287" height="264">
<path d="M1313.14 504.63H27.1191V768H1313.14V504.63Z" fill="white"/>
</mask>
<g mask="url(#mask0_639_176)">
<path d="M1266.81 782.94V739.08C1266.81 739 1266.85 738.93 1266.92 738.89C1268.04 738.25 1277.45 732.69 1277.45 725.92C1277.45 718.72 1271.27 715.97 1271.27 708.77C1271.27 701.57 1278.13 700.88 1278.13 694.02C1278.13 687.16 1271.95 685.79 1271.95 678.93C1271.95 672.07 1278.81 669.67 1278.81 664.52C1278.81 659.37 1271.26 654.23 1271.26 649.77C1271.26 645.31 1277.78 640.16 1277.78 634.33C1277.78 628.5 1271.95 625.41 1271.95 619.24C1271.95 613.07 1278.13 609.98 1278.13 603.8C1278.13 597.62 1271.27 594.54 1271.27 589.05C1271.27 583.56 1278.47 580.82 1278.47 573.96C1278.47 567.1 1268.86 563.67 1268.86 558.87C1268.86 554.07 1274.01 547.55 1272.29 543.78C1270.57 540.01 1259.98 521.06 1259.98 521.06C1258.93 519.04 1256.06 519.01 1254.97 521C1251.08 528.1 1244.01 541.07 1242.78 543.78C1241.06 547.55 1246.21 554.07 1246.21 558.87C1246.21 563.67 1236.6 567.1 1236.6 573.96C1236.6 580.82 1243.8 583.57 1243.8 589.05C1243.8 594.53 1236.94 597.63 1236.94 603.8C1236.94 609.97 1243.12 613.06 1243.12 619.24C1243.12 625.42 1237.29 628.5 1237.29 634.33C1237.29 640.16 1243.81 645.31 1243.81 649.77C1243.81 654.23 1236.26 659.38 1236.26 664.52C1236.26 669.66 1243.12 672.07 1243.12 678.93C1243.12 685.79 1236.94 687.16 1236.94 694.02C1236.94 700.88 1243.8 701.57 1243.8 708.77C1243.8 715.97 1237.62 718.72 1237.62 725.92C1237.62 732.69 1247.02 738.25 1248.15 738.89C1248.22 738.93 1248.26 739 1248.26 739.08V782.94C1248.26 783.06 1248.36 783.16 1248.48 783.16H1266.57C1266.71 783.16 1266.81 783.06 1266.81 782.94Z" fill="#050577" stroke="#050577" stroke-width="3" stroke-miterlimit="10"/>
<path d="M1085.2 645.04V770.13" stroke="#050577" stroke-width="6" stroke-miterlimit="10" stroke-linecap="round" stroke-linejoin="round"/>
<path d="M1057.33 661.37L1085.21 685.68L1113.26 661.37" stroke="#050577" stroke-width="6" stroke-miterlimit="10" stroke-linecap="round" stroke-linejoin="round"/>
<path d="M1057.33 697.42L1085.21 721.73L1113.26 697.42" stroke="#050577" stroke-width="6" stroke-miterlimit="10" stroke-linecap="round" stroke-linejoin="round"/>
<path d="M1140.41 585.84C1137.39 592.28 1137.75 599.79 1141.37 605.92L1148.65 618.25C1152.33 624.47 1152.63 632.13 1149.47 638.62L1140.97 656.06C1137.9 662.37 1138.09 669.78 1141.49 675.91L1148.28 688.18C1151.6 694.17 1151.87 701.39 1149 707.61L1140.84 725.33C1138.87 729.62 1138.36 734.51 1139.4 739.11C1139.68 740.36 1140.08 741.59 1140.58 742.77C1141.33 744.54 1142.68 746.03 1143.76 747.6C1144.68 748.94 1145.57 750.3 1146.43 751.68C1148.46 754.92 1150.36 758.26 1151.87 761.77C1152.99 764.38 1154.04 767.25 1154.04 770.13" stroke="#050577" stroke-width="6" stroke-miterlimit="10" stroke-linecap="round"/>
<path d="M1163.1 605.92L1170.38 618.25C1174.06 624.47 1174.36 632.13 1171.2 638.62L1162.7 656.06C1159.63 662.37 1159.82 669.78 1163.22 675.91L1170.01 688.18C1173.33 694.17 1173.6 701.39 1170.73 707.61L1162.57 725.33C1160.62 729.56 1160.1 734.39 1161.1 738.95C1161.58 741.11 1162.34 743.25 1163.66 745.05C1164.51 746.21 1165.35 747.37 1166.15 748.56C1168.11 751.47 1169.95 754.47 1171.59 757.58C1173.23 760.68 1174.77 763.97 1175.47 767.43C1175.65 768.32 1175.77 769.23 1175.77 770.13" stroke="#050577" stroke-width="6" stroke-miterlimit="10" stroke-linecap="round"/>
<path d="M1197.72 553.97C1197.72 566.41 1184.56 585.84 1184.56 585.84C1181.54 592.28 1181.9 599.79 1185.52 605.92L1192.8 618.25C1196.48 624.47 1196.78 632.13 1193.62 638.62L1185.12 656.06C1182.05 662.37 1182.24 669.78 1185.64 675.91L1192.43 688.18C1195.75 694.17 1196.02 701.39 1193.15 707.61L1184.99 725.33C1183.04 729.56 1182.52 734.39 1183.51 738.94C1183.98 741.1 1184.67 743.13 1186.01 744.91C1186.66 745.77 1187.26 746.66 1187.87 747.55C1189.7 750.21 1191.43 752.95 1193.01 755.76C1194.72 758.81 1196.32 761.99 1197.34 765.34C1197.81 766.89 1198.18 768.5 1198.18 770.13" stroke="#050577" stroke-width="6" stroke-miterlimit="10" stroke-linecap="round"/>
<path d="M160.11 623.28C163.13 629.72 162.77 637.23 159.15 643.36L151.87 655.69C148.19 661.91 147.89 669.57 151.05 676.06L159.55 693.5C162.62 699.81 162.43 707.22 159.03 713.35L152.24 725.62C148.92 731.61 148.65 738.83 151.52 745.05L159.68 762.77C161.65 767.06 162.16 771.95 161.12 776.55C160.84 777.8 160.44 779.03 159.94 780.21C159.19 781.98 157.84 783.47 156.76 785.04C155.84 786.38 154.95 787.74 154.09 789.12C152.06 792.36 150.16 795.7 148.65 799.21C147.53 801.82 146.48 804.69 146.48 807.57" stroke="#050577" stroke-width="6" stroke-miterlimit="10" stroke-linecap="round"/>
<path d="M137.42 643.35L130.14 655.68C126.46 661.9 126.16 669.56 129.32 676.05L137.82 693.49C140.89 699.8 140.7 707.21 137.3 713.34L130.51 725.61C127.19 731.6 126.92 738.82 129.79 745.04L137.95 762.76C139.9 766.99 140.42 771.82 139.42 776.38C138.94 778.54 138.18 780.68 136.86 782.48C136.01 783.64 135.17 784.8 134.37 785.99C132.41 788.9 130.57 791.9 128.93 795.01C127.29 798.11 125.75 801.4 125.05 804.86C124.87 805.75 124.75 806.66 124.75 807.56" stroke="#050577" stroke-width="6" stroke-miterlimit="10" stroke-linecap="round"/>
<path d="M102.8 591.4C102.8 603.84 115.96 623.27 115.96 623.27C118.98 629.71 118.62 637.22 115 643.35L107.72 655.68C104.04 661.9 103.74 669.56 106.9 676.05L115.4 693.49C118.47 699.8 118.28 707.21 114.88 713.34L108.09 725.61C104.77 731.6 104.5 738.82 107.37 745.04L115.53 762.76C117.48 766.99 118 771.82 117.01 776.37C116.54 778.53 115.85 780.56 114.51 782.34C113.86 783.2 113.26 784.09 112.65 784.98C110.82 787.64 109.09 790.38 107.51 793.19C105.8 796.24 104.2 799.42 103.18 802.77C102.71 804.32 102.34 805.93 102.34 807.56" stroke="#050577" stroke-width="6" stroke-miterlimit="10" stroke-linecap="round"/>
<path d="M236.619 634.73V764.23" stroke="#050577" stroke-width="6" stroke-miterlimit="10" stroke-linecap="round" stroke-linejoin="round"/>
<path d="M226.02 647.27L236.6 654.21L246.97 647.51" stroke="#050577" stroke-width="6" stroke-miterlimit="10" stroke-linecap="round" stroke-linejoin="round"/>
<path d="M193.779 662.47L204.369 669.41L214.729 662.71" stroke="#050577" stroke-width="6" stroke-miterlimit="10" stroke-linecap="round" stroke-linejoin="round"/>
<path d="M236.509 682.57C236.509 682.57 217.609 682.57 213.019 682.57C205.309 682.57 204.389 679.99 204.389 675.04V652.84" stroke="#050577" stroke-width="6" stroke-miterlimit="10" stroke-linecap="round" stroke-linejoin="round"/>
<path d="M274.589 678.39L264.009 685.33L253.639 678.63" stroke="#050577" stroke-width="6" stroke-miterlimit="10" stroke-linecap="round" stroke-linejoin="round"/>
<path d="M239.639 698.49C239.639 698.49 250.829 698.49 255.409 698.49C263.119 698.49 264.039 695.91 264.039 690.96V668.57" stroke="#050577" stroke-width="6" stroke-miterlimit="10" stroke-linecap="round" stroke-linejoin="round"/>
<path d="M331.668 735.96C345.458 738.44 358.698 730.23 362.868 717.25C363.478 715.36 362.298 713.37 360.348 713.01L312.768 704.47C310.818 704.12 309.018 705.58 308.928 707.56C308.318 721.18 317.878 733.48 331.668 735.96Z" fill="#050577"/>
<path d="M328.199 713.05C331.407 713.05 334.009 710.449 334.009 707.24C334.009 704.031 331.407 701.43 328.199 701.43C324.99 701.43 322.389 704.031 322.389 707.24C322.389 710.449 324.99 713.05 328.199 713.05Z" fill="#050577"/>
<path d="M345.499 716.16C348.708 716.16 351.309 713.559 351.309 710.35C351.309 707.141 348.708 704.54 345.499 704.54C342.291 704.54 339.689 707.141 339.689 710.35C339.689 713.559 342.291 716.16 345.499 716.16Z" fill="#050577"/>
<path d="M311.28 708.59L306.35 702.57L312.59 693.9" stroke="#050577" stroke-width="4.2524" stroke-miterlimit="10" stroke-linecap="round" stroke-linejoin="round"/>
<path d="M316.708 683.64C312.938 682.96 309.338 685.47 308.658 689.24C307.978 693.01 310.488 696.61 314.258 697.29C318.028 697.97 321.628 695.46 322.308 691.69L315.488 690.47L316.708 683.64Z" fill="#050577"/>
<path d="M359.809 717.61L366.869 713.44L364.039 703.13" stroke="#050577" stroke-width="4.2524" stroke-miterlimit="10" stroke-linecap="round" stroke-linejoin="round"/>
<path d="M363.739 692.08C367.509 692.76 370.019 696.36 369.339 700.13C368.659 703.9 365.059 706.41 361.289 705.73C357.519 705.05 355.009 701.45 355.689 697.68L362.509 698.9L363.739 692.08Z" fill="#050577"/>
<path d="M313.149 722.11L304.969 728.24L306.149 741.58" stroke="#050577" stroke-width="4.2524" stroke-miterlimit="10" stroke-linecap="round" stroke-linejoin="round"/>
<path d="M320.608 728.1L315.148 731.66L316.658 742.24" stroke="#050577" stroke-width="4.2524" stroke-miterlimit="10" stroke-linecap="round" stroke-linejoin="round"/>
<path d="M353.629 729.44L359.109 737.95L353.739 749.29" stroke="#050577" stroke-width="4.2524" stroke-miterlimit="10" stroke-linecap="round" stroke-linejoin="round"/>
<path d="M344.508 732.39L348.378 737.62L343.488 746.64" stroke="#050577" stroke-width="4.2524" stroke-miterlimit="10" stroke-linecap="round" stroke-linejoin="round"/>
<path d="M328.2 710.09C329.774 710.09 331.05 708.814 331.05 707.24C331.05 705.666 329.774 704.39 328.2 704.39C326.626 704.39 325.35 705.666 325.35 707.24C325.35 708.814 326.626 710.09 328.2 710.09Z" fill="white"/>
<path d="M328.2 708.67C328.989 708.67 329.63 708.03 329.63 707.24C329.63 706.45 328.989 705.81 328.2 705.81C327.41 705.81 326.77 706.45 326.77 707.24C326.77 708.03 327.41 708.67 328.2 708.67Z" fill="black"/>
<path d="M345.498 713.2C347.072 713.2 348.348 711.924 348.348 710.35C348.348 708.776 347.072 707.5 345.498 707.5C343.924 707.5 342.648 708.776 342.648 710.35C342.648 711.924 343.924 713.2 345.498 713.2Z" fill="white"/>
<path d="M345.498 711.78C346.288 711.78 346.928 711.14 346.928 710.35C346.928 709.56 346.288 708.92 345.498 708.92C344.709 708.92 344.068 709.56 344.068 710.35C344.068 711.14 344.709 711.78 345.498 711.78Z" fill="black"/>
<mask id="mask1_639_176" style="mask-type:luminance" maskUnits="userSpaceOnUse" x="966" y="725" width="400" height="100">
<path d="M1366 725.33H966.959V824.72H1366V725.33Z" fill="white"/>
</mask>
<g mask="url(#mask1_639_176)">
<path d="M1074.03 1053.9C1159.53 1053.9 1228.85 984.585 1228.85 899.08C1228.85 813.575 1159.53 744.26 1074.03 744.26C988.524 744.26 919.209 813.575 919.209 899.08C919.209 984.585 988.524 1053.9 1074.03 1053.9Z" fill="white"/>
</g>
<mask id="mask2_639_176" style="mask-type:luminance" maskUnits="userSpaceOnUse" x="966" y="725" width="400" height="100">
<path d="M1366 725.33H966.959V824.72H1366V725.33Z" fill="white"/>
</mask>
<g mask="url(#mask2_639_176)">
<path d="M1201.57 893.94C1240.65 893.94 1272.34 862.255 1272.34 823.17C1272.34 784.085 1240.65 752.4 1201.57 752.4C1162.48 752.4 1130.8 784.085 1130.8 823.17C1130.8 862.255 1162.48 893.94 1201.57 893.94Z" fill="white"/>
</g>
<mask id="mask3_639_176" style="mask-type:luminance" maskUnits="userSpaceOnUse" x="68" y="717" width="400" height="108">
<path d="M467.669 717.61H68.6289V824.72H467.669V717.61Z" fill="white"/>
</mask>
<g mask="url(#mask3_639_176)">
<path d="M220.598 874.66C258.214 874.66 288.708 844.166 288.708 806.55C288.708 768.934 258.214 738.44 220.598 738.44C182.982 738.44 152.488 768.934 152.488 806.55C152.488 844.166 182.982 874.66 220.598 874.66Z" fill="white"/>
</g>
<mask id="mask4_639_176" style="mask-type:luminance" maskUnits="userSpaceOnUse" x="68" y="717" width="400" height="108">
<path d="M467.669 717.61H68.6289V824.72H467.669V717.61Z" fill="white"/>
</mask>
<g mask="url(#mask4_639_176)">
<path d="M307.769 1047.16C391.97 1047.16 460.229 978.901 460.229 894.7C460.229 810.499 391.97 742.24 307.769 742.24C223.567 742.24 155.309 810.499 155.309 894.7C155.309 978.901 223.567 1047.16 307.769 1047.16Z" fill="white"/>
</g>
</g>
</g>
<defs>
<clipPath id="clip0_639_176">
<rect width="1366" height="768" fill="white"/>
</clipPath>
</defs>
</svg>
