<svg width="1366" height="768" viewBox="0 0 1366 768" fill="none" xmlns="http://www.w3.org/2000/svg">
<g clip-path="url(#clip0_639_98)">
<path d="M1366 0H0V768.3H1366V0Z" fill="#084FF9"/>
<path d="M910.659 536.75C955.792 536.75 992.379 500.163 992.379 455.03C992.379 409.897 955.792 373.31 910.659 373.31C865.527 373.31 828.939 409.897 828.939 455.03C828.939 500.163 865.527 536.75 910.659 536.75Z" fill="white"/>
<path d="M911.29 443.4C911.26 443.45 911.18 443.32 911.08 443.28C908.88 442.75 908.44 443.71 907.75 445.56C907.79 445.86 908.07 446.31 908.23 446.53C908.36 446.9 908.61 447.31 908.96 447.47C909.66 448.18 910.89 447.41 911.58 446.99C912.49 446.1 912.24 444.16 911.29 443.4Z" fill="#050577"/>
<path d="M900.799 444.25C900.259 444.31 899.579 444.47 899.219 444.84C898.469 445.8 898.669 447.75 899.769 448.39C900.609 448.68 901.959 449.09 902.519 448.18C902.889 447.72 903.109 446.88 903.189 446.3C903.139 446.01 902.859 445.7 902.719 445.45C902.239 444.84 901.689 444.04 900.799 444.25Z" fill="#050577"/>
<path d="M960.569 453.65C960.639 452.71 960.909 451.84 960.869 450.89C960.819 449.79 960.739 448.65 960.599 447.57C960.419 446.15 960.019 444.74 959.899 443.32C959.799 442.08 959.539 440.82 959.249 439.62C958.909 438.21 958.509 436.61 957.969 435.29C957.619 434.44 957.279 433.59 956.939 432.74C956.469 431.58 955.769 430.65 955.079 429.69C953.559 427.58 952.049 425.55 950.009 424.15C948.339 423 946.339 421.85 944.409 421.55C942.979 421.33 941.609 420.88 940.199 420.51C938.129 419.97 935.959 420.04 933.869 419.56C932.769 419.31 931.679 418.97 930.569 418.77C929.329 418.55 928.089 418.57 926.839 418.53C923.959 418.44 921.139 418.67 918.259 418.88C915.829 419.06 913.379 419.08 910.979 419.7C910.259 419.89 909.589 420.06 908.849 420.17C906.799 420.47 904.749 420.65 902.709 420.99C901.169 421.25 899.629 421.18 898.079 421.48C896.369 421.81 894.669 422.2 892.959 422.56C892.159 422.73 891.379 422.9 890.599 423.16C888.929 423.72 887.209 424.13 885.519 424.63C884.819 424.84 883.999 424.89 883.329 425.26C882.839 425.53 882.459 425.86 881.939 426.06C879.299 427.06 876.819 428.3 874.349 429.79C873.359 430.39 872.329 430.85 871.329 431.45C870.209 432.12 869.159 433.14 867.969 433.62C866.329 434.29 864.929 435.61 863.589 436.92C862.079 438.4 860.429 439.4 859.119 441.21C858.809 441.64 858.559 441.88 858.189 442.23C857.689 442.71 857.359 443.66 857.019 444.05C856.839 444.46 856.659 445.49 856.489 446.02C856.199 446.95 855.819 447.83 855.439 448.71C855.009 449.69 854.899 450.66 854.869 451.74C854.839 453.04 854.709 454.37 854.759 455.66C854.809 456.87 854.879 458.02 854.819 459.24C854.749 460.62 854.959 461.87 855.109 463.21C855.299 464.85 855.159 466.53 855.389 468.17C855.519 469.1 855.799 469.87 856.179 470.69C856.489 471.36 856.949 471.8 857.379 472.35C858.409 473.68 860.189 473.8 861.649 473.91C862.379 473.97 863.099 473.7 863.829 473.7C864.369 473.7 864.909 473.77 865.449 473.76C867.559 473.72 869.379 473.05 871.369 472.34C872.549 471.92 873.789 471.71 874.959 471.28C875.729 470.99 876.459 470.58 877.239 470.29C880.019 469.25 882.699 467.87 885.469 466.8C887.079 466.18 888.729 465.64 890.299 464.91C891.929 464.15 893.529 463.34 895.219 462.81C896.399 462.44 897.589 462.4 898.779 462.24C898.849 462.91 898.929 463.58 898.999 464.25C899.299 467.5 899.239 470.78 899.219 474.05C899.209 475.56 899.549 476.98 899.609 478.49C899.679 480.3 899.829 482.08 899.829 483.9C899.829 486.2 899.589 488.68 899.929 490.96C900.039 491.68 900.019 492.36 900.029 493.09C900.039 493.81 900.299 494.38 900.189 495.12C900.099 495.71 899.689 496.63 900.499 496.78C901.339 496.93 902.329 496.75 903.189 496.78C904.579 496.84 905.929 497.23 907.329 497.21C908.289 497.19 909.209 496.93 910.159 496.76C910.619 496.68 911.079 496.63 911.519 496.44C912.409 496.06 913.059 495.24 913.839 494.71C914.599 494.19 915.509 493.85 916.369 493.51C917.039 493.24 917.589 492.76 918.259 492.5C918.659 492.34 918.959 492.26 919.309 491.98C920.409 491.12 922.339 489.88 922.519 488.35C922.569 487.94 922.519 487.48 922.519 487.07C922.519 485.54 922.519 484.01 922.529 482.49C922.549 478.4 922.009 474.3 921.929 470.21C921.869 467.65 921.919 465.08 921.909 462.51C921.909 462.22 921.919 461.94 921.939 461.66C922.059 461.66 922.179 461.67 922.299 461.68C926.329 461.82 930.369 461.96 934.399 462.1C939.359 462.27 944.319 462.42 949.279 462.62C951.139 462.69 952.989 462.52 954.839 462.54C955.459 462.55 956.109 462.68 956.729 462.56C957.689 462.38 958.759 462.21 959.679 461.91C959.769 461.13 959.859 460.47 959.999 459.66C960.209 458.44 960.699 457.19 960.719 455.94C960.739 455.16 960.519 454.45 960.569 453.65ZM891.719 425.2C891.809 425.12 892.039 425.08 892.149 425.01C892.329 424.89 892.539 424.67 892.719 424.54L892.649 424.89C892.629 424.99 892.619 425.09 892.619 425.2C892.619 425.43 892.609 425.64 892.669 425.87C892.719 426.11 891.169 425.78 891.059 426.05C890.929 426.37 890.269 426.22 890.149 425.91C889.989 425.58 891.469 425.43 891.719 425.2ZM870.449 453.43C870.249 453.82 869.539 453.96 869.039 454.17C868.389 454.44 867.719 454.68 867.049 454.9C866.339 455.13 866.139 454.83 866.119 454.12C866.069 452.28 865.919 450.45 865.809 448.62C865.809 448.56 865.769 448.51 865.729 448.4C864.959 448.31 864.609 448.63 864.649 449.44C864.749 451.64 864.829 453.84 864.939 456.03C864.959 456.54 865.179 456.8 865.779 456.72C866.779 456.58 867.789 456.49 868.799 456.48C869.049 456.48 869.459 456.81 869.519 457.06C869.879 458.44 870.179 459.85 870.419 461.25C870.459 461.5 870.219 461.98 869.999 462.07C868.349 462.73 866.679 463.34 864.989 463.91C864.799 463.97 864.309 463.7 864.259 463.51C863.909 462.13 863.629 460.74 863.319 459.27C863.829 459.19 864.249 459.13 864.759 459.05C864.919 459.8 865.079 460.54 865.239 461.27C866.799 461.25 867.099 460.9 866.829 459.55C866.729 459.07 866.679 458.58 866.589 457.93C865.339 457.85 863.989 457.77 862.479 457.68C862.259 455.93 862.029 454.19 861.839 452.45C861.669 450.86 861.559 449.27 861.399 447.68C861.329 447.03 861.309 446.7 862.209 446.7C863.589 446.7 864.959 446.42 866.339 446.26C867.009 446.18 867.689 446.04 868.359 446.05C868.589 446.06 868.949 446.43 869.019 446.7C869.439 448.42 869.789 450.16 870.159 451.9C870.269 452.42 870.629 453.07 870.449 453.43ZM881.699 458.78C880.959 458.97 880.629 458.68 880.409 457.97C879.889 456.29 879.269 454.64 878.689 452.95C877.949 453.08 877.299 453.2 876.359 453.37C877.039 455.45 877.609 457.44 878.349 459.36C878.769 460.45 878.559 461 877.439 461.22C876.899 461.33 876.349 461.51 875.809 461.48C875.459 461.46 874.909 461.18 874.809 460.89C873.659 457.4 872.579 453.89 871.479 450.38C871.409 450.17 871.319 449.96 871.229 449.75C870.389 447.84 870.559 447.46 872.489 446.95C874.189 446.5 874.179 446.51 874.899 449.04C875.089 449.73 875.349 450.4 875.559 451.05C877.819 450.89 877.969 450.59 877.199 448.65C876.639 447.26 876.229 445.82 875.749 444.4C875.459 443.54 875.709 443.04 876.659 442.81C877.749 442.54 878.809 442.11 880.089 441.68C881.089 447.24 882.079 452.77 883.099 458.5C882.669 458.59 882.179 458.65 881.699 458.78ZM894.039 453.83C893.919 454.3 893.829 454.74 893.679 455.15C893.639 455.25 893.389 455.33 893.259 455.31C891.819 455.12 890.389 454.91 888.959 454.71C888.459 454.64 887.959 454.59 887.389 454.53C887.559 455.46 887.739 456.36 887.869 457.26C888.119 459.01 888.449 458.62 886.789 458.95C886.589 458.99 886.389 459.02 886.189 459.06C885.809 459.14 885.599 459.02 885.509 458.62C885.029 456.49 884.499 454.37 884.039 452.23C883.599 450.18 883.189 448.12 882.829 446.06C882.639 444.98 882.569 443.88 882.469 442.78C882.459 442.66 882.669 442.44 882.799 442.4C884.839 441.9 886.879 441.43 888.919 440.95C890.079 440.67 891.239 440.4 892.399 440.1C892.859 439.98 893.089 440.09 893.129 440.59C893.249 442.14 893.339 443.69 893.519 445.22C893.689 446.7 893.959 448.17 894.179 449.65C894.209 449.83 894.239 450.01 894.269 450.18C892.669 450.85 891.109 451.5 889.539 452.15C889.539 452.2 889.539 452.24 889.529 452.29C891.039 452.81 892.519 453.31 894.039 453.83ZM904.099 479.08C904.039 479.5 903.919 479.87 903.779 480.26C903.889 481.29 903.999 482.3 903.909 483.33C903.739 485.46 903.419 487.62 903.799 489.73C903.639 488.9 903.499 488.07 903.389 487.23C903.299 486.4 903.299 485.57 903.379 484.74C903.429 483.88 903.499 483.02 903.549 482.16C903.569 481.81 903.669 481.44 903.639 481.09C903.619 480.88 903.509 480.67 903.529 480.46C903.539 480.38 903.559 480.3 903.589 480.22C903.479 479.16 903.339 478.1 903.289 477.04C903.199 475.2 903.189 473.36 903.089 471.52C903.259 471.59 903.429 471.41 903.449 471.12C903.479 470.61 903.109 470.15 903.209 469.65C903.249 469.43 903.359 469.27 903.359 469.05C903.359 468.67 903.629 468.34 903.799 467.98C903.909 468.03 903.889 468.75 903.899 468.85C903.929 469.36 903.909 469.87 903.899 470.38C903.899 471.22 904.029 472.04 904.019 472.88C904.009 473.55 904.139 474.23 904.089 474.89C904.069 475.19 903.929 475.43 903.889 475.72C903.839 476.02 903.899 476.32 903.929 476.62C903.969 477.08 904.059 477.52 904.149 477.97C904.219 478.32 904.149 478.72 904.099 479.08ZM915.329 450.03C914.139 453.95 911.659 452.21 908.599 452.78C907.769 451.84 907.119 450.58 905.959 449.98C906.109 451.44 904.499 453.33 903.099 453.66C902.159 453.87 901.209 453.86 900.269 453.86C899.639 453.8 898.899 454.1 898.359 453.68C897.569 452.86 896.359 452.28 895.979 451.15C895.679 447.79 894.709 444.15 895.619 440.84C895.619 440.84 896.099 440.38 896.449 440.11C896.679 439.93 897.219 439.56 897.219 439.56C897.429 439.43 897.699 439.33 897.789 439.3C898.989 439.46 900.329 439.5 901.589 439.43C904.499 441.47 904.029 443.82 905.279 441.12C906.489 438.74 909.289 437.54 911.699 438.92C912.639 439.44 914.019 439.73 914.549 440.73C915.039 443.8 915.789 446.91 915.329 450.03ZM926.379 449.61C926.059 447.94 925.739 446.29 925.389 444.5C925.189 446.91 924.999 449.15 924.799 451.51C924.159 451.56 923.389 451.62 922.659 451.67C921.799 449.19 920.969 446.79 920.139 444.39C920.079 444.4 920.019 444.4 919.959 444.41C919.959 445.07 919.959 445.74 919.949 446.4C919.909 447.79 919.859 449.18 919.809 450.58C919.809 450.65 919.779 450.78 919.739 450.79C919.229 450.9 918.719 451.06 918.209 451.06C918.049 451.06 917.789 450.63 917.749 450.38C917.199 446.74 916.689 443.09 916.129 439.44C915.969 438.39 915.669 437.36 915.419 436.29C916.709 435.75 917.939 435.22 919.189 434.74C919.309 434.69 919.679 435 919.779 435.22C920.409 436.64 920.999 438.08 921.609 439.52C921.649 439.61 921.719 439.68 921.879 439.93C922.229 438.43 922.559 437.09 922.859 435.74C923.139 434.46 923.389 433.18 923.679 431.9C923.709 431.78 923.869 431.61 923.979 431.6C925.209 431.46 926.449 431.34 927.739 431.22C928.839 437.23 928.769 443.24 928.949 449.33C928.089 449.42 927.259 449.52 926.379 449.61ZM931.979 448.53C931.569 448.61 931.549 448.61 931.499 448.18C931.399 447.38 931.319 446.58 931.229 445.79C931.159 445.17 931.069 444.55 931.009 443.92C930.929 443.15 930.869 442.38 930.799 441.61C930.759 441.15 930.709 440.68 930.669 440.22C930.619 439.56 930.579 438.91 930.519 438.25C930.459 437.56 930.239 435.68 930.169 434.99C930.159 434.87 930.129 434.75 930.289 434.72C930.769 434.63 932.059 434.4 932.559 434.31C932.579 434.52 932.609 434.78 932.639 435.03C932.759 435.92 933.039 438 933.159 438.89C933.269 439.76 933.359 440.64 933.469 441.52C933.559 442.27 933.659 443.01 933.759 443.76C933.869 444.59 933.989 445.42 934.099 446.26C934.179 446.87 934.229 447.49 934.299 448.13C933.789 448.21 932.479 448.44 931.979 448.53ZM943.709 440.76C943.489 443.2 943.249 445.32 943.029 447.76C942.999 448.07 942.799 448.08 942.579 448.11C941.889 448.2 941.199 448.29 940.499 448.38C940.229 448.41 939.949 448.43 939.679 448.48C938.949 448.63 938.209 448.78 937.489 448.95C937.139 449.03 936.969 448.9 936.899 448.57C936.709 447.66 936.519 446.76 936.329 445.85C936.119 444.83 935.899 443.82 935.699 442.8C935.509 441.79 935.309 440.79 935.169 439.77C934.919 438.01 934.719 436.24 934.459 434.48C934.349 433.73 934.139 432.99 933.989 432.25C933.939 432.01 933.839 431.83 934.289 431.79C935.249 431.7 936.179 431.42 937.139 431.32C938.599 431.18 940.069 431.12 941.529 431.03C941.929 431.01 941.919 431.33 941.919 431.57C941.919 432.59 941.919 433.62 941.879 434.64C941.829 435.99 941.729 437.33 941.679 438.68C941.659 439.1 941.479 439.31 941.079 439.41C939.719 439.75 938.369 440.12 937.009 440.47C936.769 440.53 936.679 440.64 936.719 440.91C936.989 442.49 937.249 444.08 937.489 445.67C937.549 446.05 937.669 446.28 938.079 446.3C938.309 446.31 938.709 446.36 938.999 446.42C938.909 445.92 938.819 445.5 938.759 445.08C938.599 443.75 938.439 442.75 938.309 441.42C938.299 441.3 938.439 441.08 938.539 441.05C939.579 440.79 940.449 440.6 941.499 440.36C942.079 440.23 942.649 440.08 943.229 439.94C943.359 439.91 943.499 439.89 943.709 439.85C943.709 440.17 943.739 440.47 943.709 440.76ZM947.179 448.11C946.899 448.11 946.489 447.77 946.359 447.49C945.769 446.14 945.239 444.76 944.739 443.37C944.689 443.22 944.889 442.83 945.049 442.77C946.039 442.42 946.749 442.2 947.759 441.95C947.919 441.91 948.319 442.23 948.359 442.43C948.509 443.15 948.519 443.91 948.639 444.64C948.739 445.24 948.809 446.01 950.029 445.96C949.789 444.07 949.559 442.22 949.319 440.28C947.799 440.63 946.389 440.95 944.909 441.28C944.239 438.08 943.729 435.02 943.979 431.86C946.009 432.04 947.929 432.21 949.839 432.41C949.969 432.42 950.169 432.64 950.179 432.78C950.329 434.34 950.449 435.9 950.579 437.48C950.549 437.5 950.509 437.56 950.449 437.57C948.599 437.98 948.599 437.98 948.279 436.1C948.239 435.88 948.199 435.67 948.159 435.46C947.909 434.17 947.749 434.07 946.359 434.36C946.569 436.04 946.769 437.73 946.999 439.57C948.359 439.19 949.629 438.84 950.969 438.47C951.529 441.59 952.079 444.67 952.679 448.04C950.789 448.07 948.989 448.13 947.179 448.11ZM955.779 459.17C955.739 459.41 955.769 459.55 955.659 459.79C955.569 459.98 955.409 460.01 955.449 460.26C955.199 460.34 953.949 460.72 953.789 460.38C953.659 460.09 954.119 459.68 954.309 459.53C954.529 459.35 954.709 459.11 954.929 458.95C955.239 458.71 955.729 458.57 956.079 458.41L956.299 458.29C956.219 458.55 955.819 458.97 955.779 459.17ZM957.829 459.09C957.219 459.1 957.379 458.4 957.389 457.95C957.399 457.45 957.319 457.15 957.169 456.68C957.089 456.42 957.029 456.67 957.079 456.31C957.099 456.14 957.199 455.97 957.219 455.78C957.259 455.44 957.329 455.31 957.519 455.04C957.759 454.71 957.909 454.33 958.259 454.04L958.089 455.08C958.389 455.12 958.319 456.1 958.349 456.33C958.399 456.75 958.379 457.18 958.429 457.6C958.459 457.83 958.579 458 958.619 458.22C958.689 458.68 958.329 459.08 957.829 459.09Z" fill="#050577"/>
<path d="M889.11 443.94C888.73 444.06 887.26 444.44 887.01 444.52C887.45 446.12 887.75 447.89 888.16 449.42C888.31 449.39 889.75 448.82 889.97 448.78C889.68 447.13 889.4 445.55 889.11 443.94Z" fill="#050577"/>
<path d="M937.73 437.33C937.76 437.49 937.79 437.65 937.82 437.81C938.02 437.77 939.29 437.51 939.47 437.48C939.33 435.96 939.26 434.6 939.22 433.02C938.34 433.12 936.99 433.12 937.15 434.07C937.34 435.15 937.54 436.24 937.73 437.33Z" fill="#050577"/>
<path d="M1047.95 484.69C1104.8 484.69 1150.88 438.607 1150.88 381.76C1150.88 324.913 1104.8 278.83 1047.95 278.83C991.103 278.83 945.02 324.913 945.02 381.76C945.02 438.607 991.103 484.69 1047.95 484.69Z" fill="white"/>
<path d="M1051.38 351.1C1050.22 352.09 1048.62 351.89 1046.92 351.68C1044.26 351.35 1041.23 350.97 1039.25 355.2L1038.89 356.18C1038.89 354.71 1038.89 353.23 1038.89 351.75C1037.35 351.75 1035.88 351.75 1034.41 351.75C1034.41 360.51 1034.41 369.23 1034.41 377.93C1035.93 377.93 1037.39 377.93 1038.89 377.93C1038.89 375.66 1038.89 373.43 1038.89 371.2V360.5C1038.89 359.71 1038.89 358.91 1038.89 358.12C1041.68 355.49 1044.11 355.64 1046.09 355.78C1048.5 355.95 1050.39 356.08 1051.56 351.21L1051.64 350.89L1051.38 351.1Z" fill="#050577"/>
<path d="M1074 370.88C1074 372.43 1074.01 373.99 1073.99 375.54C1073.99 375.7 1073.82 375.9 1073.67 375.99C1069.36 378.66 1064.75 379.52 1059.87 377.99C1055.18 376.52 1052.22 373.28 1051.05 368.51C1050.05 364.45 1050.53 360.53 1052.75 356.94C1054.35 354.34 1056.69 352.58 1059.61 351.68C1063.37 350.52 1067.12 350.6 1070.65 352.45C1074.06 354.24 1075.92 357.08 1075.8 361.02C1075.71 364.11 1073.61 366.33 1070.51 366.51C1068.04 366.65 1065.56 366.61 1063.09 366.63C1061.9 366.64 1060.75 366.8 1059.67 367.35C1057.54 368.44 1057.24 371.25 1059.09 372.79C1060.32 373.82 1061.77 374.29 1063.33 374.47C1067.1 374.9 1070.49 374.05 1073.33 371.42C1073.54 371.23 1073.7 370.98 1073.88 370.76C1073.9 370.82 1073.95 370.85 1074 370.88ZM1056.5 369.95C1056.54 369.93 1056.59 369.92 1056.63 369.9C1056.64 369.84 1056.66 369.78 1056.65 369.72C1056.27 367.31 1057.42 365.21 1059.61 364.17C1061.05 363.49 1062.57 363.38 1064.12 363.36C1065.64 363.33 1067.17 363.39 1068.68 363.29C1070.27 363.19 1071.22 362.08 1071.21 360.48C1071.2 358.96 1070.59 357.7 1069.43 356.74C1065.68 353.65 1059.33 354.86 1056.71 359.14C1054.94 362.04 1054.83 365.12 1055.79 368.3C1055.96 368.88 1056.26 369.41 1056.5 369.95Z" fill="#050577"/>
<path d="M1016.32 350.96C1021.38 351.05 1025.47 353.06 1027.99 357.68C1029.74 360.9 1030.04 364.4 1029.4 367.98C1028.95 370.48 1027.93 372.72 1026.22 374.63C1024.99 376 1023.53 377.06 1021.8 377.72C1017.52 379.34 1013.31 379.24 1009.28 377C1006.06 375.21 1004.18 372.36 1003.31 368.86C1002.54 365.76 1002.66 362.66 1003.7 359.62C1005.44 354.51 1010.06 351.14 1015.48 351.01C1015.72 351 1015.97 350.98 1016.32 350.96ZM1024.98 364.84C1024.98 364.66 1024.99 364.48 1024.98 364.3C1024.75 360.64 1023.45 357.62 1019.95 355.92C1016.28 354.14 1011.24 355.41 1009.2 358.8C1006.84 362.73 1006.77 366.83 1009.1 370.78C1011.72 375.22 1018.52 375.95 1022.19 372.32C1024.27 370.26 1024.96 367.67 1024.98 364.84Z" fill="#050577"/>
<path d="M1080.1 371.9C1081.04 372.41 1081.85 372.93 1082.73 373.31C1086.06 374.75 1089.49 375.18 1093 374.02C1094.87 373.4 1095.88 371.8 1095.48 370.12C1095.15 368.73 1094.04 368.04 1092.82 367.62C1090.66 366.88 1088.44 366.28 1086.26 365.59C1084.66 365.08 1083.13 364.42 1081.83 363.31C1079.2 361.07 1079.37 356.79 1081.46 354.42C1083.33 352.3 1085.8 351.41 1088.48 351.11C1091.56 350.76 1094.59 351.08 1097.49 352.32C1098.04 352.56 1098.28 352.83 1098.25 353.47C1098.19 354.67 1098.23 355.87 1098.23 357C1097.03 356.51 1095.86 355.91 1094.62 355.57C1092.08 354.87 1089.51 354.82 1086.98 355.69C1085.75 356.11 1084.68 356.78 1084.27 358.14C1083.92 359.31 1084.37 360.46 1085.38 361.17C1086.86 362.22 1088.63 362.51 1090.3 363.05C1092.32 363.7 1094.38 364.28 1096.32 365.14C1098.7 366.2 1100 368.15 1100 370.83C1100 373.61 1098.75 375.67 1096.37 377.08C1094.09 378.43 1091.57 378.79 1088.98 378.75C1086.07 378.7 1083.26 378.14 1080.63 376.84C1080.22 376.64 1080.08 376.42 1080.09 375.97C1080.12 374.62 1080.1 373.31 1080.1 371.9Z" fill="#050577"/>
<path d="M1106 355.77C1104.65 355.77 1103.38 355.77 1102.08 355.77C1102.08 354.4 1102.08 353.1 1102.08 351.73C1103.36 351.73 1104.63 351.73 1106 351.73C1106 350.68 1106 350.5 1106 349.51C1106 348.41 1106.3 346.82 1109 346.82C1109.86 346.82 1109.58 346.82 1110.52 346.82C1110.52 348.46 1110.52 350.04 1110.52 351.68C1112.88 351.68 1115.16 351.68 1117.5 351.68C1117.5 353.07 1117.5 354.39 1117.5 355.77C1115.2 355.77 1112.91 355.77 1110.59 355.77C1110.57 355.94 1110.55 356.04 1110.55 356.15C1110.56 360.76 1110.53 365.36 1110.6 369.97C1110.61 370.89 1110.85 371.88 1111.24 372.72C1111.97 374.28 1113.63 374.96 1115.56 374.66C1116.21 374.56 1116.84 374.39 1117.55 374.23C1117.55 375.51 1117.56 376.79 1117.54 378.07C1117.54 378.18 1117.34 378.36 1117.21 378.39C1114.96 378.9 1112.73 378.99 1110.52 378.15C1108.39 377.35 1107.11 375.75 1106.57 373.64C1106.23 372.29 1106.06 370.87 1106.04 369.48C1105.97 365.15 1106.02 360.81 1106.02 356.48C1106 356.28 1106 356.05 1106 355.77Z" fill="#050577"/>
<path d="M983.369 368.57C983.369 368.31 983.369 368.06 983.369 367.8C983.759 359.5 989.679 362.7 995.649 361.27C1000.93 360.15 1001.81 358.51 1001.91 353.55C999.009 355.66 995.689 355.45 991.969 356.07C987.199 356.86 984.619 359.55 983.369 363.7C983.369 358.23 983.369 352.74 983.369 347.2H998.719C1001.17 347.2 1004.62 345.21 1004.62 342.76H978.359V377.95H983.369C983.369 377.16 983.369 376.42 983.369 375.62V368.57Z" fill="#050577"/>
<path d="M1107.2 393.14C1106.04 394.13 1104.44 393.93 1102.74 393.72C1100.08 393.39 1097.05 393.01 1095.07 397.24L1094.71 398.22C1094.71 396.75 1094.71 395.27 1094.71 393.79C1093.17 393.79 1091.7 393.79 1090.23 393.79C1090.23 402.55 1090.23 411.27 1090.23 419.97C1091.75 419.97 1093.21 419.97 1094.71 419.97C1094.71 417.7 1094.71 415.47 1094.71 413.24V402.54C1094.71 401.75 1094.71 400.95 1094.71 400.16C1097.5 397.53 1099.93 397.68 1101.91 397.82C1104.32 397.99 1106.21 398.12 1107.38 393.25L1107.46 392.93L1107.2 393.14Z" fill="#050577"/>
<path d="M1072.04 393.01C1077.37 393.05 1081.61 395.14 1083.97 400.03C1086.21 404.68 1086.18 409.48 1083.74 414.09C1081.1 419.06 1076.69 420.94 1071.24 420.73C1067.95 420.6 1065.04 419.47 1062.66 417.15C1060.59 415.14 1059.41 412.65 1058.92 409.84C1058.35 406.58 1058.6 403.37 1060.03 400.34C1061.97 396.23 1065.24 393.85 1069.74 393.15C1070.12 393.09 1070.5 393.04 1070.89 393.02C1071.27 392.99 1071.66 393.01 1072.04 393.01ZM1063.28 407.02C1063.29 407.13 1063.3 407.42 1063.32 407.72C1063.66 411.59 1065.22 414.68 1069.07 416.08C1072.34 417.27 1076.51 416.58 1078.93 413.22C1081.45 409.72 1081.45 403.97 1078.91 400.48C1075.75 396.13 1068.83 395.96 1065.47 400.14C1063.91 402.1 1063.33 404.38 1063.28 407.02Z" fill="#050577"/>
<path d="M1027.61 407.22C1027.69 403.2 1028.63 399.8 1031.22 397C1033.54 394.5 1036.46 393.27 1039.82 393.01C1042.37 392.82 1044.83 393.16 1047.17 394.27C1049.86 395.55 1051.85 397.54 1053.06 400.22C1054.87 404.2 1055.02 408.33 1053.51 412.39C1051.73 417.16 1048.18 419.92 1043.1 420.61C1039.74 421.07 1036.53 420.55 1033.63 418.72C1030.25 416.58 1028.49 413.4 1027.84 409.53C1027.71 408.67 1027.67 407.78 1027.61 407.22ZM1041.38 416.59C1044.61 416.54 1047.26 414.95 1048.79 411.71C1049.78 409.61 1049.99 407.36 1049.67 405.06C1049.15 401.31 1046.94 398.22 1043.2 397.36C1039.35 396.48 1035.29 397.85 1033.34 401.87C1032.31 403.99 1032.11 406.25 1032.38 408.57C1032.93 413.33 1036.4 416.54 1041.38 416.59Z" fill="#050577"/>
<path d="M1021.69 419.97C1020.29 419.97 1018.95 419.97 1017.61 419.97C1017.52 419.97 1017.44 419.95 1017.32 419.93V387.49C1017.32 385.08 1019.28 383.12 1021.69 383.12V419.97Z" fill="#050577"/>
<path d="M994.469 410.6C994.469 410.34 994.469 410.09 994.469 409.83C994.859 401.53 1000.78 404.73 1006.75 403.3C1012.03 402.18 1012.91 400.54 1013.01 395.58C1010.11 397.69 1006.79 397.48 1003.07 398.1C998.299 398.89 995.719 401.58 994.469 405.73C994.469 400.26 994.469 394.77 994.469 389.23H1009.82C1012.27 389.23 1015.72 387.24 1015.72 384.79H989.459V419.98H994.469C994.469 419.19 994.469 418.45 994.469 417.65V410.6Z" fill="#050577"/>
<path d="M1082.96 630.99C1093.68 630.99 1102.37 622.3 1102.37 611.58C1102.37 600.86 1093.68 592.17 1082.96 592.17C1072.24 592.17 1063.55 600.86 1063.55 611.58C1063.55 622.3 1072.24 630.99 1082.96 630.99Z" fill="white"/>
<path d="M1173.96 227.68C1183.81 227.68 1191.8 219.693 1191.8 209.84C1191.8 199.987 1183.81 192 1173.96 192C1164.11 192 1156.12 199.987 1156.12 209.84C1156.12 219.693 1164.11 227.68 1173.96 227.68Z" fill="white"/>
<path d="M1019.51 561.19C1026.26 561.19 1031.73 555.719 1031.73 548.97C1031.73 542.221 1026.26 536.75 1019.51 536.75C1012.76 536.75 1007.29 542.221 1007.29 548.97C1007.29 555.719 1012.76 561.19 1019.51 561.19Z" fill="white"/>
<path d="M882.521 176.03C887.381 176.03 891.321 172.09 891.321 167.23C891.321 162.37 887.381 158.43 882.521 158.43C877.661 158.43 873.721 162.37 873.721 167.23C873.721 172.09 877.661 176.03 882.521 176.03Z" fill="white"/>
<path d="M319.85 631.52C310.62 627.88 300.19 632.42 296.55 641.65L294.41 647.07L292.27 652.49L286.16 668L319.59 681.17L325.7 665.66L327.84 660.24L329.98 654.82C333.61 645.59 329.08 635.16 319.85 631.52Z" fill="#050577" stroke="#050577" stroke-width="2.0908" stroke-miterlimit="10" stroke-linecap="round" stroke-linejoin="round"/>
<path d="M296.551 641.65L329.971 654.82" stroke="#084FF9" stroke-width="3" stroke-miterlimit="10" stroke-linecap="round" stroke-linejoin="round"/>
<path d="M302.95 674.55L292.08 702.13" stroke="#050577" stroke-width="3" stroke-miterlimit="10" stroke-linecap="round" stroke-linejoin="round"/>
<path d="M294.89 671.38C294.89 671.38 288.8 686.84 287.16 690.99C284.72 697.19 277.15 693.98 279.95 686.87" stroke="#050577" stroke-width="3" stroke-miterlimit="10" stroke-linecap="round" stroke-linejoin="round"/>
<path d="M310.921 677.69C310.921 677.69 304.831 693.15 303.191 697.3C300.751 703.5 308.471 706.32 311.271 699.2" stroke="#050577" stroke-width="3" stroke-miterlimit="10" stroke-linecap="round" stroke-linejoin="round"/>
<path d="M319.31 681.89C319.09 682.44 317.031 687.68 316.011 690.25C314.081 695.14 321.43 698.91 323.99 692.41C325.7 688.08 329.031 679.62 330.671 675.47C333.111 669.27 340.68 672.48 337.88 679.59" stroke="#050577" stroke-width="3" stroke-miterlimit="10" stroke-linecap="round" stroke-linejoin="round"/>
<path d="M285.881 668.72C285.661 669.27 283.601 674.51 282.581 677.08C280.651 681.97 272.711 679.71 275.281 673.21C276.991 668.88 280.321 660.42 281.961 656.27C284.401 650.07 276.681 647.25 273.881 654.37" stroke="#050577" stroke-width="3" stroke-miterlimit="10" stroke-linecap="round" stroke-linejoin="round"/>
<path d="M301.452 664.29C302.241 664.29 302.882 663.65 302.882 662.86C302.882 662.07 302.241 661.43 301.452 661.43C300.662 661.43 300.021 662.07 300.021 662.86C300.021 663.65 300.662 664.29 301.452 664.29Z" stroke="white" stroke-width="2.0908" stroke-miterlimit="10" stroke-linecap="round" stroke-linejoin="round"/>
<path d="M311.231 668.15C312.021 668.15 312.661 667.51 312.661 666.72C312.661 665.93 312.021 665.29 311.231 665.29C310.441 665.29 309.801 665.93 309.801 666.72C309.801 667.51 310.441 668.15 311.231 668.15Z" stroke="white" stroke-width="2.0908" stroke-miterlimit="10" stroke-linecap="round" stroke-linejoin="round"/>
<path d="M1173.2 475.43L1155.65 505.76L1190.7 505.79L1225.74 505.82L1208.25 475.46L1190.75 445.09L1173.2 475.43Z" fill="white"/>
<path d="M1213.88 464.12L1207.05 475.92L1220.68 475.93L1234.32 475.95L1227.51 464.13L1220.71 452.32L1213.88 464.12Z" fill="white"/>
<path d="M1179.17 498.18C1182.37 498.18 1184.96 495.588 1184.96 492.39C1184.96 489.192 1182.37 486.6 1179.17 486.6C1175.97 486.6 1173.38 489.192 1173.38 492.39C1173.38 495.588 1175.97 498.18 1179.17 498.18Z" fill="black"/>
<path d="M772.809 271.62H750.189L761.499 252.04L772.809 232.45L784.119 252.04L794.589 270.17L822.809 221.28L851.879 271.62L880.939 321.97H822.809H764.679L793.739 271.62H772.809Z" fill="white"/>
<path d="M842.209 308.91C847.511 308.91 851.809 304.612 851.809 299.31C851.809 294.008 847.511 289.71 842.209 289.71C836.907 289.71 832.609 294.008 832.609 299.31C832.609 304.612 836.907 308.91 842.209 308.91Z" fill="black"/>
<path d="M758.199 734.77C759.119 733.02 760.139 731.07 761.169 729.13C763.159 725.37 765.149 721.61 767.159 717.86C767.689 716.88 767.689 715.98 767.149 714.97C764.239 709.47 761.389 703.95 758.499 698.44C758.119 697.72 757.909 697 758.259 696.22C758.679 695.28 759.539 694.78 760.619 694.96C763.449 695.42 766.269 695.93 769.089 696.42C772.599 697.03 776.109 697.63 779.609 698.26C780.609 698.44 781.359 698.14 782.059 697.43C786.429 692.95 790.819 688.48 795.209 684.02C796.249 682.96 797.429 682.73 798.329 683.57C798.789 684 799.129 684.72 799.219 685.36C800.129 691.45 800.999 697.54 801.819 703.64C801.999 704.96 802.619 705.73 803.789 706.31C808.719 708.71 813.629 711.18 818.539 713.62C819.139 713.92 819.739 714.21 820.339 714.5C821.229 714.93 821.809 715.58 821.799 716.61C821.789 717.64 821.199 718.26 820.299 718.7C816.229 720.68 812.159 722.68 808.099 724.68C806.489 725.47 804.879 726.27 803.259 727.04C802.379 727.46 801.939 728.12 801.799 729.09C800.879 735.39 799.939 741.69 799.009 748C798.879 748.9 798.399 749.54 797.529 749.84C796.549 750.18 795.759 749.84 795.069 749.12C790.739 744.64 786.379 740.17 782.059 735.67C781.229 734.81 780.359 734.52 779.189 734.73C773.049 735.8 766.889 736.82 760.739 737.85C758.859 738.15 757.519 736.68 758.199 734.77ZM790.989 719.18C791.829 716.64 790.499 713.95 787.969 713.1C785.409 712.24 782.669 713.59 781.819 716.14C780.979 718.67 782.389 721.45 784.929 722.27C787.449 723.08 790.149 721.71 790.989 719.18ZM779.429 725.48C779.939 723.94 779.179 722.39 777.649 721.89C776.109 721.39 774.559 722.17 774.069 723.7C773.579 725.2 774.349 726.74 775.829 727.24C777.349 727.76 778.919 726.99 779.429 725.48ZM787.559 705.07C787.109 706.51 787.949 708.14 789.379 708.62C790.839 709.1 792.509 708.24 792.989 706.77C793.459 705.31 792.599 703.63 791.129 703.17C789.659 702.72 788.029 703.59 787.559 705.07ZM787.029 727.96C786.529 729.48 787.339 731.03 788.879 731.52C790.369 731.99 791.909 731.21 792.409 729.72C792.919 728.2 792.139 726.64 790.609 726.14C789.069 725.63 787.529 726.42 787.029 727.96ZM776.289 713.91C777.809 714.41 779.409 713.6 779.889 712.11C780.369 710.6 779.539 708.99 778.049 708.52C776.569 708.06 774.969 708.86 774.509 710.31C773.999 711.86 774.779 713.42 776.289 713.91ZM800.369 718.84C800.859 717.4 800.069 715.8 798.609 715.28C797.119 714.75 795.519 715.53 794.999 717.05C794.469 718.56 795.239 720.12 796.779 720.65C798.259 721.15 799.859 720.35 800.369 718.84ZM790.169 698.79C789.759 700.02 790.449 701.38 791.659 701.76C792.829 702.12 794.189 701.43 794.589 700.27C794.999 699.07 794.299 697.71 793.069 697.32C791.859 696.93 790.569 697.59 790.169 698.79ZM773.219 728.83C773.639 727.62 773.029 726.33 771.819 725.9C770.559 725.45 769.259 726.06 768.829 727.3C768.399 728.53 769.069 729.88 770.289 730.28C771.489 730.67 772.809 730.02 773.219 728.83ZM792.999 732.85C791.749 732.43 790.449 733.08 790.049 734.33C789.659 735.53 790.319 736.83 791.519 737.24C792.739 737.66 794.079 736.97 794.479 735.74C794.859 734.53 794.219 733.26 792.999 732.85ZM770.319 705.67C769.929 706.89 770.559 708.18 771.759 708.59C772.969 709.01 774.349 708.33 774.739 707.11C775.139 705.86 774.459 704.57 773.199 704.18C771.959 703.8 770.719 704.45 770.319 705.67ZM802.099 716.08C801.679 717.32 802.329 718.64 803.569 719.04C804.749 719.42 806.069 718.76 806.489 717.57C806.909 716.39 806.259 715.07 805.059 714.65C803.809 714.21 802.529 714.82 802.099 716.08ZM792.529 739.92C792.169 741.01 792.739 742.2 793.829 742.58C794.919 742.97 796.179 742.35 796.549 741.24C796.919 740.13 796.289 738.91 795.159 738.55C794.059 738.21 792.899 738.82 792.529 739.92ZM812.189 716.47C812.559 715.35 812.009 714.22 810.889 713.83C809.749 713.43 808.569 714.01 808.189 715.15C807.809 716.27 808.429 717.47 809.569 717.83C810.669 718.18 811.809 717.59 812.189 716.47ZM763.879 730.54C763.539 731.63 764.139 732.83 765.219 733.19C766.339 733.57 767.549 732.95 767.909 731.82C768.259 730.7 767.679 729.54 766.579 729.18C765.459 728.81 764.239 729.43 763.879 730.54ZM770.369 702.72C770.729 701.56 770.109 700.42 768.949 700.07C767.829 699.73 766.669 700.34 766.329 701.44C765.979 702.57 766.629 703.78 767.749 704.11C768.869 704.43 770.029 703.81 770.369 702.72ZM793.599 695.85C794.689 696.2 795.869 695.59 796.239 694.51C796.619 693.39 796.009 692.19 794.869 691.83C793.769 691.48 792.589 692.07 792.229 693.16C791.849 694.26 792.479 695.49 793.599 695.85Z" fill="#050577"/>
<mask id="mask0_639_98" style="mask-type:luminance" maskUnits="userSpaceOnUse" x="38" y="548" width="1287" height="221">
<path d="M1324.1 548.97H38.7402V768.3H1324.1V548.97Z" fill="white"/>
</mask>
<g mask="url(#mask0_639_98)">
<path d="M1175.55 659.88V784.97" stroke="#050577" stroke-width="6" stroke-miterlimit="10" stroke-linecap="round" stroke-linejoin="round"/>
<path d="M1147.68 676.21L1175.56 700.51L1203.61 676.21" stroke="#050577" stroke-width="6" stroke-miterlimit="10" stroke-linecap="round" stroke-linejoin="round"/>
<path d="M1147.68 712.26L1175.56 736.57L1203.61 712.26" stroke="#050577" stroke-width="6" stroke-miterlimit="10" stroke-linecap="round" stroke-linejoin="round"/>
<path d="M1230.31 600.68C1227.29 607.12 1227.65 614.63 1231.27 620.76L1238.55 633.09C1242.23 639.31 1242.53 646.97 1239.37 653.46L1230.87 670.9C1227.8 677.21 1227.99 684.62 1231.39 690.75L1238.18 703.02C1241.5 709.01 1241.77 716.23 1238.9 722.45L1230.74 740.17C1228.03 746.06 1228.12 752.87 1230.99 758.69C1230.99 758.69 1243.95 775.69 1243.95 784.97" stroke="#050577" stroke-width="6" stroke-miterlimit="10" stroke-linecap="round"/>
<path d="M1253.01 620.76L1260.29 633.09C1263.97 639.31 1264.27 646.97 1261.11 653.46L1252.61 670.9C1249.54 677.21 1249.73 684.62 1253.13 690.75L1259.92 703.02C1263.24 709.01 1263.51 716.23 1260.64 722.45L1252.48 740.17C1249.77 746.06 1249.86 752.87 1252.73 758.69C1252.73 758.69 1265.69 775.69 1265.69 784.97" stroke="#050577" stroke-width="6" stroke-miterlimit="10" stroke-linecap="round"/>
<path d="M1287.62 568.81C1287.62 581.25 1274.46 600.68 1274.46 600.68C1271.44 607.12 1271.8 614.63 1275.42 620.76L1282.7 633.09C1286.38 639.31 1286.68 646.97 1283.52 653.46L1275.02 670.9C1271.95 677.21 1272.14 684.62 1275.54 690.75L1282.33 703.02C1285.65 709.01 1285.92 716.23 1283.05 722.45L1274.89 740.17C1272.18 746.06 1272.27 752.87 1275.14 758.69C1275.14 758.69 1288.1 775.69 1288.1 784.97" stroke="#050577" stroke-width="6" stroke-miterlimit="10" stroke-linecap="round"/>
<path d="M123.681 638.11C126.701 644.55 126.341 652.06 122.721 658.19L115.441 670.52C111.761 676.74 111.461 684.4 114.621 690.89L123.121 708.33C126.191 714.64 126.001 722.05 122.601 728.18L115.811 740.45C112.491 746.44 112.221 753.66 115.091 759.88L123.251 777.6C125.961 783.49 125.871 790.3 123.001 796.12C123.001 796.12 110.041 813.12 110.041 822.4" stroke="#050577" stroke-width="6" stroke-miterlimit="10" stroke-linecap="round"/>
<path d="M101.45 658.19L94.1695 670.52C90.4895 676.74 90.1895 684.4 93.3495 690.89L101.85 708.33C104.92 714.64 104.73 722.05 101.33 728.18L94.5395 740.45C91.2195 746.44 90.9495 753.66 93.8195 759.88L101.98 777.6C104.69 783.49 104.6 790.3 101.73 796.12C101.73 796.12 88.7695 813.12 88.7695 822.4" stroke="#050577" stroke-width="6" stroke-miterlimit="10" stroke-linecap="round"/>
<path d="M66.5503 606.24C66.5503 618.68 79.7103 638.11 79.7103 638.11C82.7303 644.55 82.3703 652.06 78.7503 658.19L71.4703 670.52C67.7903 676.74 67.4903 684.4 70.6503 690.89L79.1503 708.33C82.2203 714.64 82.0303 722.05 78.6303 728.18L71.8403 740.45C68.5203 746.44 68.2503 753.66 71.1203 759.88L79.2803 777.6C81.9903 783.49 81.9003 790.3 79.0303 796.12C79.0303 796.12 66.0703 813.12 66.0703 822.4" stroke="#050577" stroke-width="6" stroke-miterlimit="10" stroke-linecap="round"/>
<path d="M227.32 770.17H152.94C147.85 770.17 143.73 766.05 143.73 760.96V705.04C143.73 696.92 150.31 690.34 158.43 690.34H221.83C229.95 690.34 236.53 696.92 236.53 705.04V760.96C236.53 766.05 232.41 770.17 227.32 770.17Z" fill="#050577" stroke="#084FF9" stroke-width="2.7923" stroke-miterlimit="10" stroke-linecap="round" stroke-linejoin="round"/>
<path d="M219.061 770.17H159.791V704.73C159.791 696.78 166.231 690.34 174.181 690.34H204.671C212.621 690.34 219.061 696.78 219.061 704.73V770.17Z" stroke="#084FF9" stroke-width="2.7923" stroke-miterlimit="10" stroke-linecap="round" stroke-linejoin="round"/>
<path d="M143.74 714.87H236.53" stroke="#084FF9" stroke-width="2.7923" stroke-miterlimit="10" stroke-linecap="round" stroke-linejoin="round"/>
<path d="M143.74 732.34H177.46" stroke="#084FF9" stroke-width="2.7923" stroke-miterlimit="10" stroke-linecap="round" stroke-linejoin="round"/>
<path d="M202.801 732.34H236.531" stroke="#084FF9" stroke-width="2.7923" stroke-miterlimit="10" stroke-linecap="round" stroke-linejoin="round"/>
<path d="M177.461 732.34C177.461 738.95 182.821 744.3 189.421 744.3C196.031 744.3 201.381 738.94 201.381 732.34" stroke="#084FF9" stroke-width="2.7923" stroke-miterlimit="10" stroke-linecap="round" stroke-linejoin="round"/>
<path d="M189.42 732.34C188.97 732.34 188.6 731.97 188.6 731.52V726.6C188.6 726.15 188.97 725.78 189.42 725.78C189.87 725.78 190.24 726.15 190.24 726.6V731.52C190.24 731.97 189.87 732.34 189.42 732.34Z" stroke="#084FF9" stroke-width="2.7923" stroke-miterlimit="10" stroke-linecap="round" stroke-linejoin="round"/>
<path d="M682.999 1338.46C851.479 1338.46 988.059 1201.88 988.059 1033.4C988.059 864.92 851.479 728.34 682.999 728.34C514.519 728.34 377.939 864.92 377.939 1033.4C377.939 1201.88 514.519 1338.46 682.999 1338.46Z" fill="white"/>
</g>
</g>
<defs>
<clipPath id="clip0_639_98">
<rect width="1366" height="768" fill="white"/>
</clipPath>
</defs>
</svg>
